<mxfile host="app.diagrams.net" modified="2022-03-03T08:53:34.716Z" agent="5.0 (X11)" etag="wq42ZP8LJeLGJbZfvFsw" version="16.5.4" type="github">
  <diagram id="VE649-K3cnq60oCywfK2" name="Page-1">
    <mxGraphModel dx="1736" dy="1016" grid="1" gridSize="10" guides="1" tooltips="1" connect="1" arrows="1" fold="1" page="1" pageScale="1" pageWidth="827" pageHeight="1169" math="0" shadow="0">
      <root>
        <mxCell id="0" />
        <mxCell id="1" parent="0" />
        <mxCell id="C0bMGpMIb8SiMNeXKc4t-32" style="edgeStyle=orthogonalEdgeStyle;rounded=0;orthogonalLoop=1;jettySize=auto;html=1;entryX=0.5;entryY=0;entryDx=0;entryDy=0;startArrow=none;startFill=0;endArrow=none;endFill=0;" edge="1" parent="1" source="C0bMGpMIb8SiMNeXKc4t-1" target="C0bMGpMIb8SiMNeXKc4t-6">
          <mxGeometry relative="1" as="geometry">
            <Array as="points">
              <mxPoint x="180" y="260" />
              <mxPoint x="180" y="260" />
            </Array>
          </mxGeometry>
        </mxCell>
        <mxCell id="C0bMGpMIb8SiMNeXKc4t-1" value="Université" style="swimlane;" vertex="1" parent="1">
          <mxGeometry x="80" y="40" width="200" height="200" as="geometry" />
        </mxCell>
        <mxCell id="C0bMGpMIb8SiMNeXKc4t-7" value="Nom:" style="text;html=1;align=center;verticalAlign=middle;resizable=0;points=[];autosize=1;strokeColor=none;fillColor=none;" vertex="1" parent="C0bMGpMIb8SiMNeXKc4t-1">
          <mxGeometry x="40" y="70" width="40" height="20" as="geometry" />
        </mxCell>
        <mxCell id="C0bMGpMIb8SiMNeXKc4t-8" value="Adresse:" style="text;html=1;align=center;verticalAlign=middle;resizable=0;points=[];autosize=1;strokeColor=none;fillColor=none;" vertex="1" parent="C0bMGpMIb8SiMNeXKc4t-1">
          <mxGeometry x="40" y="110" width="60" height="20" as="geometry" />
        </mxCell>
        <mxCell id="C0bMGpMIb8SiMNeXKc4t-3" value="Id:" style="text;html=1;align=center;verticalAlign=middle;resizable=0;points=[];autosize=1;strokeColor=none;fillColor=none;" vertex="1" parent="C0bMGpMIb8SiMNeXKc4t-1">
          <mxGeometry x="40" y="30" width="30" height="20" as="geometry" />
        </mxCell>
        <mxCell id="C0bMGpMIb8SiMNeXKc4t-2" value="Diagram Merise" style="text;html=1;strokeColor=none;fillColor=none;align=center;verticalAlign=middle;whiteSpace=wrap;rounded=0;" vertex="1" parent="1">
          <mxGeometry x="430" y="10" width="60" height="30" as="geometry" />
        </mxCell>
        <mxCell id="C0bMGpMIb8SiMNeXKc4t-4" value="MCD" style="text;html=1;strokeColor=none;fillColor=none;align=center;verticalAlign=middle;whiteSpace=wrap;rounded=0;" vertex="1" parent="1">
          <mxGeometry x="340" y="10" width="60" height="30" as="geometry" />
        </mxCell>
        <mxCell id="C0bMGpMIb8SiMNeXKc4t-34" style="edgeStyle=orthogonalEdgeStyle;rounded=0;orthogonalLoop=1;jettySize=auto;html=1;exitX=0.5;exitY=1;exitDx=0;exitDy=0;entryX=0.5;entryY=0;entryDx=0;entryDy=0;startArrow=none;startFill=0;endArrow=none;endFill=0;" edge="1" parent="1" source="C0bMGpMIb8SiMNeXKc4t-6" target="C0bMGpMIb8SiMNeXKc4t-14">
          <mxGeometry relative="1" as="geometry">
            <Array as="points">
              <mxPoint x="180" y="390" />
              <mxPoint x="180" y="390" />
            </Array>
          </mxGeometry>
        </mxCell>
        <mxCell id="C0bMGpMIb8SiMNeXKc4t-37" style="edgeStyle=orthogonalEdgeStyle;rounded=0;orthogonalLoop=1;jettySize=auto;html=1;exitX=0;exitY=0.5;exitDx=0;exitDy=0;startArrow=none;startFill=0;endArrow=none;endFill=0;" edge="1" parent="1" source="C0bMGpMIb8SiMNeXKc4t-6">
          <mxGeometry relative="1" as="geometry">
            <mxPoint x="80" y="932" as="targetPoint" />
            <Array as="points">
              <mxPoint x="40" y="325" />
              <mxPoint x="40" y="932" />
            </Array>
          </mxGeometry>
        </mxCell>
        <mxCell id="C0bMGpMIb8SiMNeXKc4t-6" value="Crée" style="swimlane;rounded=1;" vertex="1" parent="1">
          <mxGeometry x="117.5" y="280" width="125" height="90" as="geometry" />
        </mxCell>
        <mxCell id="C0bMGpMIb8SiMNeXKc4t-10" value="Cours" style="swimlane;" vertex="1" parent="1">
          <mxGeometry x="560" y="420" width="200" height="200" as="geometry" />
        </mxCell>
        <mxCell id="C0bMGpMIb8SiMNeXKc4t-11" value="Titre" style="text;html=1;align=center;verticalAlign=middle;resizable=0;points=[];autosize=1;strokeColor=none;fillColor=none;" vertex="1" parent="C0bMGpMIb8SiMNeXKc4t-10">
          <mxGeometry x="40" y="70" width="40" height="20" as="geometry" />
        </mxCell>
        <mxCell id="C0bMGpMIb8SiMNeXKc4t-12" value="Description:" style="text;html=1;align=center;verticalAlign=middle;resizable=0;points=[];autosize=1;strokeColor=none;fillColor=none;" vertex="1" parent="C0bMGpMIb8SiMNeXKc4t-10">
          <mxGeometry x="30" y="110" width="80" height="20" as="geometry" />
        </mxCell>
        <mxCell id="C0bMGpMIb8SiMNeXKc4t-13" value="Id:" style="text;html=1;align=center;verticalAlign=middle;resizable=0;points=[];autosize=1;strokeColor=none;fillColor=none;" vertex="1" parent="C0bMGpMIb8SiMNeXKc4t-10">
          <mxGeometry x="40" y="30" width="30" height="20" as="geometry" />
        </mxCell>
        <mxCell id="C0bMGpMIb8SiMNeXKc4t-35" style="edgeStyle=orthogonalEdgeStyle;rounded=0;orthogonalLoop=1;jettySize=auto;html=1;exitX=1;exitY=0.5;exitDx=0;exitDy=0;startArrow=none;startFill=0;endArrow=none;endFill=0;" edge="1" parent="1" source="C0bMGpMIb8SiMNeXKc4t-14">
          <mxGeometry relative="1" as="geometry">
            <mxPoint x="340" y="520" as="targetPoint" />
            <Array as="points">
              <mxPoint x="310" y="520" />
              <mxPoint x="310" y="520" />
            </Array>
          </mxGeometry>
        </mxCell>
        <mxCell id="C0bMGpMIb8SiMNeXKc4t-14" value="Professeur" style="swimlane;startSize=23;" vertex="1" parent="1">
          <mxGeometry x="80" y="420" width="200" height="200" as="geometry" />
        </mxCell>
        <mxCell id="C0bMGpMIb8SiMNeXKc4t-15" value="Nom" style="text;html=1;align=center;verticalAlign=middle;resizable=0;points=[];autosize=1;strokeColor=none;fillColor=none;" vertex="1" parent="C0bMGpMIb8SiMNeXKc4t-14">
          <mxGeometry x="40" y="70" width="40" height="20" as="geometry" />
        </mxCell>
        <mxCell id="C0bMGpMIb8SiMNeXKc4t-16" value="Matière:" style="text;html=1;align=center;verticalAlign=middle;resizable=0;points=[];autosize=1;strokeColor=none;fillColor=none;" vertex="1" parent="C0bMGpMIb8SiMNeXKc4t-14">
          <mxGeometry x="40" y="155" width="60" height="20" as="geometry" />
        </mxCell>
        <mxCell id="C0bMGpMIb8SiMNeXKc4t-17" value="Id:" style="text;html=1;align=center;verticalAlign=middle;resizable=0;points=[];autosize=1;strokeColor=none;fillColor=none;" vertex="1" parent="C0bMGpMIb8SiMNeXKc4t-14">
          <mxGeometry x="40" y="30" width="30" height="20" as="geometry" />
        </mxCell>
        <mxCell id="C0bMGpMIb8SiMNeXKc4t-18" value="Prénom" style="text;html=1;align=center;verticalAlign=middle;resizable=0;points=[];autosize=1;strokeColor=none;fillColor=none;" vertex="1" parent="C0bMGpMIb8SiMNeXKc4t-14">
          <mxGeometry x="30" y="110" width="60" height="20" as="geometry" />
        </mxCell>
        <mxCell id="C0bMGpMIb8SiMNeXKc4t-39" style="edgeStyle=orthogonalEdgeStyle;rounded=0;orthogonalLoop=1;jettySize=auto;html=1;exitX=1;exitY=0.5;exitDx=0;exitDy=0;startArrow=none;startFill=0;endArrow=none;endFill=0;" edge="1" parent="1" source="C0bMGpMIb8SiMNeXKc4t-19">
          <mxGeometry relative="1" as="geometry">
            <mxPoint x="350" y="910" as="targetPoint" />
          </mxGeometry>
        </mxCell>
        <mxCell id="C0bMGpMIb8SiMNeXKc4t-19" value="Eleve" style="swimlane;startSize=23;" vertex="1" parent="1">
          <mxGeometry x="77.5" y="790" width="200" height="240" as="geometry" />
        </mxCell>
        <mxCell id="C0bMGpMIb8SiMNeXKc4t-20" value="Nom" style="text;html=1;align=center;verticalAlign=middle;resizable=0;points=[];autosize=1;strokeColor=none;fillColor=none;" vertex="1" parent="C0bMGpMIb8SiMNeXKc4t-19">
          <mxGeometry x="40" y="70" width="40" height="20" as="geometry" />
        </mxCell>
        <mxCell id="C0bMGpMIb8SiMNeXKc4t-21" value="Matières:" style="text;html=1;align=center;verticalAlign=middle;resizable=0;points=[];autosize=1;strokeColor=none;fillColor=none;" vertex="1" parent="C0bMGpMIb8SiMNeXKc4t-19">
          <mxGeometry x="40" y="155" width="60" height="20" as="geometry" />
        </mxCell>
        <mxCell id="C0bMGpMIb8SiMNeXKc4t-22" value="Id:" style="text;html=1;align=center;verticalAlign=middle;resizable=0;points=[];autosize=1;strokeColor=none;fillColor=none;" vertex="1" parent="C0bMGpMIb8SiMNeXKc4t-19">
          <mxGeometry x="40" y="30" width="30" height="20" as="geometry" />
        </mxCell>
        <mxCell id="C0bMGpMIb8SiMNeXKc4t-23" value="Prénom" style="text;html=1;align=center;verticalAlign=middle;resizable=0;points=[];autosize=1;strokeColor=none;fillColor=none;" vertex="1" parent="C0bMGpMIb8SiMNeXKc4t-19">
          <mxGeometry x="30" y="110" width="60" height="20" as="geometry" />
        </mxCell>
        <mxCell id="C0bMGpMIb8SiMNeXKc4t-36" style="edgeStyle=orthogonalEdgeStyle;rounded=0;orthogonalLoop=1;jettySize=auto;html=1;exitX=1;exitY=0.5;exitDx=0;exitDy=0;entryX=0;entryY=0.5;entryDx=0;entryDy=0;startArrow=none;startFill=0;endArrow=none;endFill=0;" edge="1" parent="1" source="C0bMGpMIb8SiMNeXKc4t-24" target="C0bMGpMIb8SiMNeXKc4t-10">
          <mxGeometry relative="1" as="geometry" />
        </mxCell>
        <mxCell id="C0bMGpMIb8SiMNeXKc4t-24" value="donne" style="swimlane;rounded=1;" vertex="1" parent="1">
          <mxGeometry x="340" y="470" width="125" height="100" as="geometry" />
        </mxCell>
        <mxCell id="C0bMGpMIb8SiMNeXKc4t-40" style="edgeStyle=orthogonalEdgeStyle;rounded=0;orthogonalLoop=1;jettySize=auto;html=1;exitX=1;exitY=0.5;exitDx=0;exitDy=0;entryX=0.5;entryY=1;entryDx=0;entryDy=0;startArrow=none;startFill=0;endArrow=none;endFill=0;" edge="1" parent="1" source="C0bMGpMIb8SiMNeXKc4t-25" target="C0bMGpMIb8SiMNeXKc4t-10">
          <mxGeometry relative="1" as="geometry" />
        </mxCell>
        <mxCell id="C0bMGpMIb8SiMNeXKc4t-25" value="suive" style="swimlane;rounded=1;startSize=23;" vertex="1" parent="1">
          <mxGeometry x="351" y="850" width="125" height="100" as="geometry" />
        </mxCell>
        <mxCell id="C0bMGpMIb8SiMNeXKc4t-42" value="1,1" style="text;html=1;resizable=0;autosize=1;align=center;verticalAlign=middle;points=[];fillColor=none;strokeColor=none;rounded=0;" vertex="1" parent="1">
          <mxGeometry x="165" y="380" width="30" height="20" as="geometry" />
        </mxCell>
        <mxCell id="C0bMGpMIb8SiMNeXKc4t-44" value="0,n" style="text;html=1;resizable=0;autosize=1;align=center;verticalAlign=middle;points=[];fillColor=none;strokeColor=none;rounded=0;" vertex="1" parent="1">
          <mxGeometry x="180" y="250" width="30" height="20" as="geometry" />
        </mxCell>
        <mxCell id="C0bMGpMIb8SiMNeXKc4t-45" value="0,n" style="text;html=1;resizable=0;autosize=1;align=center;verticalAlign=middle;points=[];fillColor=none;strokeColor=none;rounded=0;" vertex="1" parent="1">
          <mxGeometry x="305" y="500" width="30" height="20" as="geometry" />
        </mxCell>
        <mxCell id="C0bMGpMIb8SiMNeXKc4t-46" value="0,n" style="text;html=1;resizable=0;autosize=1;align=center;verticalAlign=middle;points=[];fillColor=none;strokeColor=none;rounded=0;" vertex="1" parent="1">
          <mxGeometry x="495" y="500" width="30" height="20" as="geometry" />
        </mxCell>
        <mxCell id="C0bMGpMIb8SiMNeXKc4t-47" value="0,n" style="text;html=1;resizable=0;autosize=1;align=center;verticalAlign=middle;points=[];fillColor=none;strokeColor=none;rounded=0;" vertex="1" parent="1">
          <mxGeometry x="305" y="880" width="30" height="20" as="geometry" />
        </mxCell>
        <mxCell id="C0bMGpMIb8SiMNeXKc4t-48" value="0,n" style="text;html=1;resizable=0;autosize=1;align=center;verticalAlign=middle;points=[];fillColor=none;strokeColor=none;rounded=0;" vertex="1" parent="1">
          <mxGeometry x="550" y="870" width="30" height="20" as="geometry" />
        </mxCell>
        <mxCell id="C0bMGpMIb8SiMNeXKc4t-49" value="1,1" style="text;html=1;resizable=0;autosize=1;align=center;verticalAlign=middle;points=[];fillColor=none;strokeColor=none;rounded=0;" vertex="1" parent="1">
          <mxGeometry x="50" y="710" width="30" height="20" as="geometry" />
        </mxCell>
        <mxCell id="id8Rjdu6hgIISuvcaqL7-1" value="Adresse:" style="text;html=1;align=center;verticalAlign=middle;resizable=0;points=[];autosize=1;strokeColor=none;fillColor=none;" vertex="1" parent="1">
          <mxGeometry x="950" y="160" width="60" height="20" as="geometry" />
        </mxCell>
      </root>
    </mxGraphModel>
  </diagram>
</mxfile>
